<?xml version="1.0" encoding="UTF-8" standalone="no"?>
<!-- Created with Inkscape (http://www.inkscape.org/) -->

<svg
   xmlns:osb="http://www.openswatchbook.org/uri/2009/osb"
   xmlns:dc="http://purl.org/dc/elements/1.1/"
   xmlns:cc="http://creativecommons.org/ns#"
   xmlns:rdf="http://www.w3.org/1999/02/22-rdf-syntax-ns#"
   xmlns:svg="http://www.w3.org/2000/svg"
   xmlns="http://www.w3.org/2000/svg"
   xmlns:sodipodi="http://sodipodi.sourceforge.net/DTD/sodipodi-0.dtd"
   xmlns:inkscape="http://www.inkscape.org/namespaces/inkscape"
   width="98.1875"
   height="92.1875"
   viewBox="0 0 98.1875 92.1875"
   id="svg2"
   version="1.1"
   inkscape:version="0.91 r13725"
   sodipodi:docname="header.svg">
  <defs
     id="defs4">
    <linearGradient
       osb:paint="solid"
       id="linearGradient4006">
      <stop
         id="stop4008"
         offset="0"
         style="stop-color:#ff6600;stop-opacity:1;" />
    </linearGradient>
  </defs>
  <sodipodi:namedview
     id="base"
     pagecolor="#ffffff"
     bordercolor="#666666"
     borderopacity="1.0"
     inkscape:pageopacity="0.0"
     inkscape:pageshadow="2"
     inkscape:zoom="1.12922"
     inkscape:cx="418.69639"
     inkscape:cy="52.193624"
     inkscape:document-units="px"
     inkscape:current-layer="layer4"
     showgrid="false"
     inkscape:window-width="1920"
     inkscape:window-height="1026"
     inkscape:window-x="0"
     inkscape:window-y="0"
     inkscape:window-maximized="1"
     fit-margin-top="10"
     fit-margin-left="10"
     fit-margin-right="10"
     fit-margin-bottom="10" />
  <metadata
     id="metadata7">
    <rdf:RDF>
      <cc:Work
         rdf:about="">
        <dc:format>image/svg+xml</dc:format>
        <dc:type
           rdf:resource="http://purl.org/dc/dcmitype/StillImage" />
        <dc:title></dc:title>
      </cc:Work>
    </rdf:RDF>
  </metadata>
  <g
     inkscape:groupmode="layer"
     id="layer4"
     inkscape:label="LOGO"
     transform="translate(-10.0625,-952.33093)">
    <g
       id="g8159">
      <g
         id="g8156">
        <path
           style="color:#000000;display:inline;overflow:visible;visibility:visible;fill:#ff6600;fill-opacity:1;fill-rule:nonzero;stroke:none;stroke-width:20.59053993;marker:none;enable-background:accumulate"
           d="m 76.84375,19.96875 c -5.4529,0 -9.875,4.42212 -9.875,9.875 0,5.45288 4.4221,9.875 9.875,9.875 5.45287,0 9.875,-4.42212 9.875,-9.875 0,-5.45288 -4.42213,-9.875 -9.875,-9.875 z m -38.3125,17.1875 c -10.19397,0 -18.46875,8.27492 -18.46875,18.46875 0,10.19392 8.27478,18.46875 18.46875,18.46875 C 48.72519,74.09375 57,65.81892 57,55.625 57,45.43117 48.72519,37.15625 38.53125,37.15625 Z m 45.375,26.3125 c -7.92649,0 -14.34375,6.41735 -14.34375,14.34375 0,7.9266 6.41726,14.34375 14.34375,14.34375 7.9265,0 14.34375,-6.41715 14.34375,-14.34375 0,-7.9264 -6.41725,-14.34375 -14.34375,-14.34375 z"
           id="path4084-39-1-8-9-5-4-1-1-2"
           inkscape:connector-curvature="0"
           sodipodi:nodetypes="sssssssssssssss"
           transform="translate(0,942.36218)" />
      </g>
      <path
         sodipodi:nodetypes="ccccccsccsccccccc"
         inkscape:connector-curvature="0"
         transform="translate(0,942.36218)"
         id="path3193-3"
         d="m 64.40625,31.40625 -11.8125,8 c 2.27646,1.97805 4.15328,4.4192 5.4375,7.1875 L 68.71875,39.375 c -2.31777,-1.98299 -3.91632,-4.78929 -4.3125,-7.96875 z M 84.5,39.78125 c -2.11231,1.63169 -4.74757,2.625 -7.625,2.625 -0.38019,0 -0.75337,-0.0293 -1.125,-0.0625 L 78.21875,61.75 c 1.78026,-0.6304 3.69135,-1 5.6875,-1 1.13281,0 2.24145,0.1017 3.3125,0.3125 z m -25.28125,21.625 c -0.82487,2.9549 -2.27816,5.6431 -4.1875,7.9375 l 12.03125,5.875 C 67.53461,72.12935 68.82247,69.3096 70.71875,67 Z"
         style="color:#000000;font-style:normal;font-variant:normal;font-weight:normal;font-stretch:normal;font-size:medium;line-height:normal;font-family:Sans;-inkscape-font-specification:Sans;text-indent:0;text-align:start;text-decoration:none;text-decoration-line:none;letter-spacing:normal;word-spacing:normal;text-transform:none;direction:ltr;block-progression:tb;writing-mode:lr-tb;baseline-shift:baseline;text-anchor:start;display:inline;overflow:visible;visibility:visible;fill:#000000;fill-opacity:1;stroke:none;stroke-width:9;marker:none;enable-background:accumulate" />
    </g>
  </g>
  <g
     inkscape:groupmode="layer"
     id="layer5"
     inkscape:label="Logo drive"
     style="display:inline"
     transform="translate(-10.0625,-952.33093)" />
</svg>
